<svg data-icon-name="settings-alt-2" data-style="line" icon_origin_id="20599" viewBox="0 0 24 24" xmlns="http://www.w3.org/2000/svg" id="settings-alt-2" class="icon line" width="48" height="48"><path style="fill: none; stroke: rgb(0, 205, 184); stroke-linecap: round; stroke-linejoin: round; stroke-width: 1.25;" d="M20.5,20.5h0a2,2,0,0,1-2.83,0l-5.21-5.21A6.59,6.59,0,0,1,8,15.84a6.5,6.5,0,0,1-5-5.76,6.42,6.42,0,0,1,.65-3.47L8,11l2.5-.5L11,8,6.61,3.68A6.42,6.42,0,0,1,10.08,3a6.5,6.5,0,0,1,5.76,5,6.59,6.59,0,0,1-.55,4.42l5.21,5.21A2,2,0,0,1,20.5,20.5Z" id="primary"></path></svg>